<svg width="111" height="40" viewBox="0 0 111 40" fill="none" xmlns="http://www.w3.org/2000/svg">
<path d="M18.5828 5.58553C18.1873 5.51593 17.8393 5.83152 17.8393 6.23312V10.1156C17.8393 10.3848 18.0035 10.6218 18.2273 10.7714C18.9102 11.2276 19.3593 12.0066 19.3593 12.8929V15.6072C19.3593 17.0051 18.2193 18.1586 16.8215 18.1586C15.41 18.1586 14.27 17.0051 14.27 15.6072V12.8929C14.27 12.0063 14.7292 11.2272 15.4154 10.771C15.6396 10.6219 15.8036 10.3848 15.8036 10.1156V6.23399C15.8036 5.83208 15.4555 5.51635 15.0597 5.58614C12.9569 5.95693 11.075 6.96791 9.6286 8.41434C7.78288 10.2601 6.64288 12.8115 6.64288 15.6072V22.3929C6.64288 27.9979 11.2165 32.5715 16.8215 32.5715C22.4265 32.5715 27 27.9979 27 22.3929V15.6072C27 10.5987 23.3534 6.42506 18.5828 5.58553Z" fill="#F85010"/>
<path d="M49.3902 2.77051H51.6075V16H49.1212L42.627 5.90625V16H40.4283V2.77051H42.8868L49.3902 12.7993V2.77051ZM63.399 11.1758L63.3712 11.7139H56.274C56.3111 12.6045 56.5832 13.2848 57.0904 13.7549C57.5976 14.2249 58.2253 14.46 58.9737 14.46C59.4932 14.46 59.954 14.3332 60.356 14.0796C60.7642 13.826 61.0735 13.4642 61.2838 12.9941L63.232 13.3281C62.9104 14.2249 62.3723 14.9238 61.6177 15.4248C60.8632 15.9258 59.988 16.1763 58.9922 16.1763C57.5388 16.1763 56.3729 15.7464 55.4947 14.8867C54.6164 14.027 54.1773 12.8426 54.1773 11.3335C54.1773 9.83057 54.6164 8.64616 55.4947 7.78027C56.3729 6.91439 57.5172 6.48145 58.9273 6.48145C60.2694 6.48145 61.3487 6.88037 62.1651 7.67822C62.9815 8.46989 63.3928 9.63574 63.399 11.1758ZM58.9366 8.06787C58.2624 8.06787 57.6996 8.23796 57.2481 8.57812C56.8028 8.91211 56.509 9.42546 56.3668 10.1182H61.2559C61.1755 9.44401 60.9281 8.93376 60.5137 8.5874C60.0993 8.24105 59.5736 8.06787 58.9366 8.06787ZM68.9005 16C68.0593 16 67.4037 15.7619 66.9337 15.2856C66.4636 14.8094 66.2286 14.1383 66.2286 13.2725V8.33691H64.3638V6.66699H65.004C65.5111 6.66699 65.876 6.54948 66.0987 6.31445C66.3275 6.07324 66.442 5.65576 66.442 5.06201V3.61475H68.3902V6.66699H70.4219V8.33691H68.3902V13.0498C68.3902 13.4766 68.4953 13.8013 68.7056 14.0239C68.9221 14.2404 69.2128 14.3486 69.5777 14.3486H70.4219V16H68.9005ZM47.1172 28.0513C47.9213 28.2677 48.5491 28.6481 49.0005 29.1924C49.452 29.7367 49.6778 30.4572 49.6778 31.354C49.6778 32.4611 49.3314 33.3455 48.6387 34.0073C47.946 34.6691 46.975 35 45.7256 35H40.4283V21.7705H44.5753C45.8741 21.7705 46.8884 22.0921 47.6182 22.7354C48.3542 23.3786 48.7222 24.2445 48.7222 25.333C48.7222 25.9515 48.5831 26.4958 48.3047 26.9658C48.0326 27.4359 47.6368 27.7977 47.1172 28.0513ZM44.5845 23.6445H42.5714V27.3647H44.8072C45.3824 27.3647 45.8339 27.1854 46.1617 26.8267C46.4957 26.4679 46.6627 26.0164 46.6627 25.4722C46.6627 24.9341 46.4802 24.495 46.1153 24.1548C45.7504 23.8146 45.2401 23.6445 44.5845 23.6445ZM45.3267 33.0703C46.038 33.0703 46.5823 32.8848 46.9595 32.5137C47.3368 32.1364 47.5255 31.6694 47.5255 31.1128C47.5255 30.5314 47.3306 30.0552 46.941 29.6841C46.5575 29.3068 45.9916 29.1182 45.2432 29.1182H42.5714V33.0703H45.3267ZM54.2886 35.1763C53.7567 35.1763 53.2805 35.0959 52.8599 34.9351C52.4455 34.7681 52.0992 34.4897 51.8209 34.1001C51.5487 33.7043 51.4127 33.2157 51.4127 32.6343C51.4127 32.2446 51.4745 31.8983 51.5982 31.5952C51.7281 31.286 51.8951 31.0293 52.0992 30.8252C52.3095 30.6211 52.5723 30.4417 52.8878 30.2871C53.2094 30.1325 53.531 30.0119 53.8526 29.9253C54.1804 29.8325 54.5577 29.7459 54.9844 29.6655L56.3946 29.4058C56.9698 29.2944 57.2574 29.013 57.2574 28.5615C57.2574 28.0296 57.0842 27.6431 56.7379 27.4019C56.3915 27.1545 55.9555 27.0308 55.4297 27.0308C54.8855 27.0308 54.4371 27.1637 54.0845 27.4297C53.732 27.6895 53.5217 28.1038 53.4537 28.6729L51.5333 28.3203C51.8487 26.4401 53.1908 25.5 55.5596 25.5C55.9555 25.5 56.3235 25.5309 56.6636 25.5928C57.01 25.6484 57.3471 25.7536 57.6749 25.9082C58.0089 26.0628 58.2934 26.2607 58.5284 26.502C58.7634 26.737 58.952 27.0524 59.0943 27.4482C59.2366 27.8379 59.3077 28.2863 59.3077 28.7935V32.4116C59.3077 32.8446 59.3726 33.1414 59.5025 33.3022C59.6324 33.4631 59.8612 33.5435 60.189 33.5435H60.3375V35H59.3262C58.2686 35 57.6378 34.5887 57.4337 33.7661H57.3316C56.9914 34.2485 56.5492 34.6042 56.0049 34.833C55.4669 35.0618 54.8948 35.1763 54.2886 35.1763ZM54.7896 33.4971C55.538 33.4971 56.1596 33.2404 56.6544 32.7271C57.1491 32.2137 57.3965 31.5396 57.3965 30.7046L55.0123 31.2334C54.4989 31.3324 54.1155 31.4777 53.8619 31.6694C53.6083 31.855 53.4815 32.1178 53.4815 32.458C53.4815 32.8044 53.6021 33.0641 53.8433 33.2373C54.0845 33.4105 54.4 33.4971 54.7896 33.4971ZM67.3697 25.4907C68.4211 25.4907 69.2437 25.7721 69.8375 26.335C70.4312 26.8916 70.7281 27.6864 70.7281 28.7192V35H68.5757V29.1831C68.5757 28.5213 68.4026 28.0327 68.0562 27.7173C67.716 27.3957 67.2769 27.2349 66.7388 27.2349C66.0956 27.2349 65.5699 27.4328 65.1617 27.8286C64.7535 28.2183 64.5463 28.8213 64.5401 29.6377V35H62.4063V25.667H64.5401V26.771C64.8555 26.3628 65.2545 26.0474 65.7369 25.8247C66.2255 25.6021 66.7698 25.4907 67.3697 25.4907ZM79.6343 35L76.378 30.8901H75.7286V35H73.5762V20.75H75.7286V29.3501H76.3223L79.4117 25.667H81.8702L78.15 29.9717L82.2877 35H79.6343ZM84.9688 23.8857C84.6101 23.8857 84.3008 23.759 84.0411 23.5054C83.7813 23.2456 83.6514 22.9364 83.6514 22.5776C83.6514 22.2189 83.7782 21.9128 84.0318 21.6592C84.2916 21.3994 84.6039 21.2695 84.9688 21.2695C85.3214 21.2695 85.6275 21.3994 85.8873 21.6592C86.147 21.9128 86.2769 22.2189 86.2769 22.5776C86.2769 22.9364 86.147 23.2456 85.8873 23.5054C85.6275 23.759 85.3214 23.8857 84.9688 23.8857ZM83.8741 35V25.667H86.0172V35H83.8741ZM94.0142 25.4907C95.0657 25.4907 95.8882 25.7721 96.482 26.335C97.0757 26.8916 97.3726 27.6864 97.3726 28.7192V35H95.2203V29.1831C95.2203 28.5213 95.0471 28.0327 94.7007 27.7173C94.3606 27.3957 93.9214 27.2349 93.3834 27.2349C92.7401 27.2349 92.2144 27.4328 91.8062 27.8286C91.398 28.2183 91.1908 28.8213 91.1846 29.6377V35H89.0508V25.667H91.1846V26.771C91.5001 26.3628 91.899 26.0474 92.3814 25.8247C92.87 25.6021 93.4143 25.4907 94.0142 25.4907ZM106.798 25.667H108.858V34.4155C108.858 36.0731 108.437 37.3193 107.596 38.1543C106.761 38.9954 105.599 39.416 104.108 39.416C101.752 39.416 100.193 38.4574 99.4322 36.54L101.204 35.7422C101.476 36.404 101.841 36.8957 102.299 37.2173C102.757 37.5451 103.332 37.709 104.024 37.709C104.909 37.709 105.577 37.4338 106.028 36.8833C106.48 36.339 106.706 35.5628 106.706 34.5547V33.1724C106.421 33.63 106.004 34.0011 105.453 34.2856C104.909 34.564 104.312 34.7031 103.663 34.7031C102.475 34.7031 101.467 34.2702 100.638 33.4043C99.8157 32.5384 99.4044 31.4313 99.4044 30.083C99.4044 29.4089 99.5188 28.7842 99.7476 28.209C99.9765 27.6276 100.283 27.1421 100.666 26.7524C101.056 26.3566 101.51 26.0474 102.03 25.8247C102.549 25.6021 103.1 25.4907 103.681 25.4907C104.355 25.4907 104.965 25.6423 105.509 25.9453C106.059 26.2422 106.471 26.638 106.743 27.1328L106.798 25.667ZM104.182 32.9404C104.943 32.9404 105.586 32.6621 106.112 32.1055C106.638 31.5488 106.9 30.8747 106.9 30.083C106.9 29.2913 106.638 28.6172 106.112 28.0605C105.592 27.4977 104.949 27.2163 104.182 27.2163C103.415 27.2163 102.772 27.4884 102.253 28.0327C101.733 28.577 101.473 29.2604 101.473 30.083C101.473 30.8932 101.736 31.5736 102.262 32.124C102.787 32.6683 103.428 32.9404 104.182 32.9404Z" fill="#F85010"/>
</svg>
