<svg width="92" height="32" viewBox="0 0 92 32" fill="none" xmlns="http://www.w3.org/2000/svg">
<path d="M29.3333 25.3333V29.3333H2.66666V25.3333C2.66666 24.6 3.26666 24 3.99999 24H28C28.7333 24 29.3333 24.6 29.3333 25.3333Z" fill="#3292E8" stroke="#3292E8" stroke-width="1.5" stroke-miterlimit="10" stroke-linecap="round" stroke-linejoin="round"/>
<path d="M9.33332 14.6666H6.66666V24H9.33332V14.6666Z" fill="#3292E8"/>
<path d="M14.6667 14.6666H12V24H14.6667V14.6666Z" fill="#3292E8"/>
<path d="M20 14.6666H17.3333V24H20V14.6666Z" fill="#3292E8"/>
<path d="M25.3333 14.6666H22.6667V24H25.3333V14.6666Z" fill="#3292E8"/>
<path d="M30.6667 30.3334H1.33334C0.786677 30.3334 0.333344 29.88 0.333344 29.3334C0.333344 28.7867 0.786677 28.3334 1.33334 28.3334H30.6667C31.2133 28.3334 31.6667 28.7867 31.6667 29.3334C31.6667 29.88 31.2133 30.3334 30.6667 30.3334Z" fill="#3292E8"/>
<path d="M28.4933 7.66662L16.4933 2.86662C16.2267 2.75995 15.7733 2.75995 15.5067 2.86662L3.50666 7.66662C3.03999 7.85329 2.66666 8.39995 2.66666 8.90662V13.3333C2.66666 14.0666 3.26666 14.6666 3.99999 14.6666H28C28.7333 14.6666 29.3333 14.0666 29.3333 13.3333V8.90662C29.3333 8.39995 28.96 7.85329 28.4933 7.66662ZM16 11.3333C14.8933 11.3333 14 10.44 14 9.33329C14 8.22662 14.8933 7.33329 16 7.33329C17.1067 7.33329 18 8.22662 18 9.33329C18 10.44 17.1067 11.3333 16 11.3333Z" fill="#3292E8"/>
<path d="M46.3232 8.87988C46.9157 9.03939 47.3783 9.31966 47.7109 9.7207C48.0436 10.1217 48.21 10.6527 48.21 11.3135C48.21 12.1292 47.9548 12.7809 47.4443 13.2686C46.9339 13.7562 46.2184 14 45.2979 14H41.3945V4.25195H44.4502C45.4072 4.25195 46.1546 4.48893 46.6924 4.96289C47.2347 5.43685 47.5059 6.07487 47.5059 6.87695C47.5059 7.33268 47.4033 7.73372 47.1982 8.08008C46.9977 8.42643 46.7061 8.69303 46.3232 8.87988ZM44.457 5.63281H42.9736V8.37402H44.6211C45.0449 8.37402 45.3776 8.24186 45.6191 7.97754C45.8652 7.71322 45.9883 7.38053 45.9883 6.97949C45.9883 6.58301 45.8538 6.25944 45.585 6.00879C45.3161 5.75814 44.9401 5.63281 44.457 5.63281ZM45.0039 12.5781C45.528 12.5781 45.929 12.4414 46.207 12.168C46.485 11.89 46.624 11.5459 46.624 11.1357C46.624 10.7074 46.4805 10.3564 46.1934 10.083C45.9108 9.80501 45.4938 9.66602 44.9424 9.66602H42.9736V12.5781H45.0039ZM51.6074 14.1299C51.2155 14.1299 50.8646 14.0706 50.5547 13.9521C50.2493 13.8291 49.9941 13.624 49.7891 13.3369C49.5885 13.0452 49.4883 12.6852 49.4883 12.2568C49.4883 11.9697 49.5339 11.7145 49.625 11.4912C49.7207 11.2633 49.8438 11.0742 49.9941 10.9238C50.1491 10.7734 50.3428 10.6413 50.5752 10.5273C50.8122 10.4134 51.0492 10.3245 51.2861 10.2607C51.5277 10.1924 51.8057 10.1286 52.1201 10.0693L53.1592 9.87793C53.583 9.7959 53.7949 9.58854 53.7949 9.25586C53.7949 8.86393 53.6673 8.5791 53.4121 8.40137C53.1569 8.21908 52.8356 8.12793 52.4482 8.12793C52.0472 8.12793 51.7168 8.22591 51.457 8.42188C51.1973 8.61328 51.0423 8.91862 50.9922 9.33789L49.5771 9.07812C49.8096 7.69271 50.7985 7 52.5439 7C52.8356 7 53.1068 7.02279 53.3574 7.06836C53.6126 7.10938 53.861 7.18685 54.1025 7.30078C54.3486 7.41471 54.5583 7.56055 54.7314 7.73828C54.9046 7.91146 55.0436 8.14388 55.1484 8.43555C55.2533 8.72266 55.3057 9.05306 55.3057 9.42676V12.0928C55.3057 12.4118 55.3535 12.6305 55.4492 12.749C55.5449 12.8675 55.7135 12.9268 55.9551 12.9268H56.0645V14H55.3193C54.54 14 54.0752 13.6969 53.9248 13.0908H53.8496C53.599 13.4463 53.2731 13.7083 52.8721 13.877C52.4756 14.0456 52.054 14.1299 51.6074 14.1299ZM51.9766 12.8926C52.528 12.8926 52.986 12.7035 53.3506 12.3252C53.7152 11.9469 53.8975 11.4502 53.8975 10.835L52.1406 11.2246C51.7624 11.2975 51.4798 11.4046 51.293 11.5459C51.1061 11.6826 51.0127 11.8763 51.0127 12.127C51.0127 12.3822 51.1016 12.5736 51.2793 12.7012C51.457 12.8288 51.6895 12.8926 51.9766 12.8926ZM61.2461 6.99316C62.0208 6.99316 62.627 7.20052 63.0645 7.61523C63.502 8.02539 63.7207 8.611 63.7207 9.37207V14H62.1348V9.71387C62.1348 9.22624 62.0072 8.86621 61.752 8.63379C61.5013 8.39681 61.1777 8.27832 60.7812 8.27832C60.3073 8.27832 59.9199 8.42415 59.6191 8.71582C59.3184 9.00293 59.1657 9.44727 59.1611 10.0488V14H57.5889V7.12305H59.1611V7.93652C59.3936 7.63574 59.6875 7.40332 60.043 7.23926C60.403 7.0752 60.804 6.99316 61.2461 6.99316ZM70.2832 14L67.8838 10.9717H67.4053V14H65.8193V3.5H67.4053V9.83691H67.8428L70.1191 7.12305H71.9307L69.1895 10.2949L72.2383 14H70.2832ZM46.7744 18.252V19.708H44.3682V28H42.7412V19.708H40.3281V18.252H46.7744ZM48.8936 22.2783C49.0667 21.9274 49.3561 21.6357 49.7617 21.4033C50.1719 21.1709 50.6208 21.0524 51.1084 21.0479V22.4834C50.3792 22.4834 49.8369 22.6383 49.4814 22.9482C49.1305 23.2536 48.9551 23.7686 48.9551 24.4932V28H47.376V21.123H48.8936V22.2783ZM53.9316 28.1299C53.5397 28.1299 53.1888 28.0706 52.8789 27.9521C52.5736 27.8291 52.3184 27.624 52.1133 27.3369C51.9128 27.0452 51.8125 26.6852 51.8125 26.2568C51.8125 25.9697 51.8581 25.7145 51.9492 25.4912C52.0449 25.2633 52.168 25.0742 52.3184 24.9238C52.4733 24.7734 52.667 24.6413 52.8994 24.5273C53.1364 24.4134 53.3734 24.3245 53.6104 24.2607C53.8519 24.1924 54.1299 24.1286 54.4443 24.0693L55.4834 23.8779C55.9072 23.7959 56.1191 23.5885 56.1191 23.2559C56.1191 22.8639 55.9915 22.5791 55.7363 22.4014C55.4811 22.2191 55.1598 22.1279 54.7725 22.1279C54.3714 22.1279 54.041 22.2259 53.7812 22.4219C53.5215 22.6133 53.3665 22.9186 53.3164 23.3379L51.9014 23.0781C52.1338 21.6927 53.1227 21 54.8682 21C55.1598 21 55.431 21.0228 55.6816 21.0684C55.9368 21.1094 56.1852 21.1868 56.4268 21.3008C56.6729 21.4147 56.8825 21.5605 57.0557 21.7383C57.2288 21.9115 57.3678 22.1439 57.4727 22.4355C57.5775 22.7227 57.6299 23.0531 57.6299 23.4268V26.0928C57.6299 26.4118 57.6777 26.6305 57.7734 26.749C57.8691 26.8675 58.0378 26.9268 58.2793 26.9268H58.3887V28H57.6436C56.8643 28 56.3994 27.6969 56.249 27.0908H56.1738C55.9232 27.4463 55.5973 27.7083 55.1963 27.877C54.7998 28.0456 54.3783 28.1299 53.9316 28.1299ZM54.3008 26.8926C54.8522 26.8926 55.3102 26.7035 55.6748 26.3252C56.0394 25.9469 56.2217 25.4502 56.2217 24.835L54.4648 25.2246C54.0866 25.2975 53.804 25.4046 53.6172 25.5459C53.4303 25.6826 53.3369 25.8763 53.3369 26.127C53.3369 26.3822 53.4258 26.5736 53.6035 26.7012C53.7812 26.8288 54.0137 26.8926 54.3008 26.8926ZM63.5703 20.9932C64.3451 20.9932 64.9512 21.2005 65.3887 21.6152C65.8262 22.0254 66.0449 22.611 66.0449 23.3721V28H64.459V23.7139C64.459 23.2262 64.3314 22.8662 64.0762 22.6338C63.8255 22.3968 63.502 22.2783 63.1055 22.2783C62.6315 22.2783 62.2441 22.4242 61.9434 22.7158C61.6426 23.0029 61.4899 23.4473 61.4854 24.0488V28H59.9131V21.123H61.4854V21.9365C61.7178 21.6357 62.0117 21.4033 62.3672 21.2393C62.7272 21.0752 63.1283 20.9932 63.5703 20.9932ZM70.4404 28.1299C69.6702 28.1299 69.0277 27.9681 68.5127 27.6445C67.9977 27.3164 67.6833 26.8424 67.5693 26.2227L68.9023 25.8467C68.9935 26.2295 69.1735 26.5189 69.4424 26.7148C69.7113 26.9062 70.0439 27.002 70.4404 27.002C70.7686 27.002 71.0465 26.9336 71.2744 26.7969C71.5023 26.6602 71.6139 26.4391 71.6094 26.1338C71.6094 26.0062 71.5798 25.8945 71.5205 25.7988C71.4613 25.6986 71.3906 25.6165 71.3086 25.5527C71.2266 25.4844 71.1081 25.4183 70.9531 25.3545C70.8027 25.2907 70.6637 25.2406 70.5361 25.2041C70.4131 25.1676 70.2445 25.1175 70.0303 25.0537C69.8161 24.9899 69.6383 24.9352 69.4971 24.8896C69.2373 24.8076 69.0186 24.7233 68.8408 24.6367C68.6631 24.5501 68.4831 24.4362 68.3008 24.2949C68.1185 24.1536 67.9795 23.9759 67.8838 23.7617C67.7926 23.543 67.7471 23.29 67.7471 23.0029C67.7471 22.5563 67.8633 22.1803 68.0957 21.875C68.3281 21.5697 68.6335 21.3486 69.0117 21.2119C69.39 21.0706 69.8229 21 70.3105 21C70.9987 21 71.5775 21.1481 72.0469 21.4443C72.5208 21.7406 72.8148 22.194 72.9287 22.8047L71.6846 23.0986C71.598 22.7523 71.4316 22.4971 71.1855 22.333C70.944 22.1689 70.6546 22.0869 70.3174 22.0869C70.0029 22.0869 69.7363 22.153 69.5176 22.2852C69.3034 22.4128 69.1963 22.6087 69.1963 22.873C69.1963 22.946 69.2031 23.0143 69.2168 23.0781C69.235 23.1374 69.2669 23.1921 69.3125 23.2422C69.3581 23.2923 69.3991 23.3379 69.4355 23.3789C69.472 23.4154 69.5312 23.4541 69.6133 23.4951C69.6953 23.5361 69.7614 23.568 69.8115 23.5908C69.8617 23.6136 69.9437 23.6432 70.0576 23.6797C70.1715 23.7116 70.2559 23.7367 70.3105 23.7549C70.3652 23.7686 70.4587 23.7936 70.5908 23.8301C70.7275 23.862 70.8232 23.8848 70.8779 23.8984C71.1331 23.9668 71.3496 24.0306 71.5273 24.0898C71.7096 24.1491 71.9079 24.238 72.1221 24.3564C72.3408 24.4704 72.5163 24.598 72.6484 24.7393C72.7852 24.8805 72.8991 25.0651 72.9902 25.293C73.0814 25.5163 73.127 25.7669 73.127 26.0449C73.127 26.4141 73.054 26.7376 72.9082 27.0156C72.7624 27.2891 72.5618 27.5055 72.3066 27.665C72.056 27.82 71.7734 27.9362 71.459 28.0137C71.1491 28.0911 70.8096 28.1299 70.4404 28.1299ZM78.2949 18.7783C78.1764 18.7783 78.0944 18.7783 78.0488 18.7783C78.0033 18.7783 77.9258 18.7829 77.8164 18.792C77.707 18.7965 77.6273 18.8057 77.5771 18.8193C77.527 18.833 77.4564 18.8558 77.3652 18.8877C77.2741 18.915 77.2057 18.9492 77.1602 18.9902C77.1191 19.0312 77.0667 19.0837 77.0029 19.1475C76.9437 19.2113 76.9004 19.2865 76.873 19.373C76.8457 19.4551 76.8206 19.5553 76.7979 19.6738C76.7751 19.7878 76.7637 19.9154 76.7637 20.0566V21.123H78.2949V22.3535H76.7637V28H75.1914V22.3535H73.8584V21.123H75.1914V20.043C75.1914 19.7331 75.2165 19.4551 75.2666 19.209C75.3213 18.9583 75.3942 18.7441 75.4854 18.5664C75.5811 18.3887 75.7018 18.236 75.8477 18.1084C75.9935 17.9808 76.1484 17.8783 76.3125 17.8008C76.4766 17.7233 76.6702 17.6618 76.8936 17.6162C77.1169 17.5706 77.3356 17.541 77.5498 17.5273C77.7686 17.5091 78.0169 17.5 78.2949 17.5V18.7783ZM85.7324 24.4453L85.7119 24.8418H80.4824C80.5098 25.498 80.7103 25.9993 81.084 26.3457C81.4577 26.6921 81.9202 26.8652 82.4717 26.8652C82.8545 26.8652 83.194 26.7718 83.4902 26.585C83.791 26.3981 84.0189 26.1315 84.1738 25.7852L85.6094 26.0312C85.3724 26.6921 84.9759 27.207 84.4199 27.5762C83.8639 27.9453 83.2191 28.1299 82.4854 28.1299C81.4144 28.1299 80.5553 27.8132 79.9082 27.1797C79.2611 26.5462 78.9375 25.6735 78.9375 24.5615C78.9375 23.4541 79.2611 22.5814 79.9082 21.9434C80.5553 21.3053 81.3984 20.9863 82.4375 20.9863C83.4264 20.9863 84.2217 21.2803 84.8232 21.8682C85.4248 22.4515 85.7279 23.3105 85.7324 24.4453ZM82.4443 22.1553C81.9476 22.1553 81.5329 22.2806 81.2002 22.5312C80.8721 22.7773 80.6556 23.1556 80.5508 23.666H84.1533C84.0941 23.1693 83.9118 22.7933 83.6064 22.5381C83.3011 22.2829 82.9137 22.1553 82.4443 22.1553ZM88.9248 22.2783C89.098 21.9274 89.3874 21.6357 89.793 21.4033C90.2031 21.1709 90.652 21.0524 91.1396 21.0479V22.4834C90.4105 22.4834 89.8682 22.6383 89.5127 22.9482C89.1618 23.2536 88.9863 23.7686 88.9863 24.4932V28H87.4072V21.123H88.9248V22.2783Z" fill="#3292E8"/>
</svg>
