<svg width="60" height="60" viewBox="0 0 60 60" fill="none" xmlns="http://www.w3.org/2000/svg">
<path fill-rule="evenodd" clip-rule="evenodd" d="M30 0C37.5 0 45.8333 0.570229 51.4583 4.16667C53.2575 5.31696 54.6831 6.7425 55.8333 8.54167C59.4298 14.1667 60 22.5 60 30C60 37.5 59.4298 45.8333 55.8333 51.4583C54.6831 53.2575 53.2575 54.6831 51.4583 55.8333C45.8333 59.4298 37.5 60 30 60C22.5 60 14.1667 59.4298 8.54167 55.8333C6.7425 54.6831 5.31696 53.2575 4.16667 51.4583C0.570229 45.8333 0 37.5 0 30C0 22.5 0.570229 14.1667 4.16667 8.54167C5.31696 6.7425 6.7425 5.31696 8.54167 4.16667C14.1667 0.570229 22.5 0 30 0Z" fill="#F85010"/>
<g clip-path="url(#clip0_61_439)">
<path fill-rule="evenodd" clip-rule="evenodd" d="M37 23.1115C38 24.1115 33 38.1115 31 38.1115C29 38.1115 29 32.1115 29 32.1115C29 32.1115 23 32.1115 23 30.1115C23 28.1115 36 22.1115 37 23.1115Z" stroke="white" stroke-width="2" stroke-linecap="round" stroke-linejoin="round"/>
</g>
<defs>
<clipPath id="clip0_61_439">
<rect width="24" height="24" fill="white" transform="translate(18 18)"/>
</clipPath>
</defs>
</svg>
