<svg width="48" height="48" viewBox="0 0 48 48" fill="none" xmlns="http://www.w3.org/2000/svg">
<circle cx="24" cy="24" r="24" fill="#3292E8"/>
<path d="M28.19 14H19.81C16.17 14 14 16.17 14 19.81V28.18C14 31.83 16.17 34 19.81 34H28.18C31.82 34 33.99 31.83 33.99 28.19V19.81C34 16.17 31.83 14 28.19 14ZM20.47 20.98L23.47 17.98C23.54 17.91 23.62 17.86 23.71 17.82C23.89 17.74 24.1 17.74 24.28 17.82C24.37 17.86 24.45 17.91 24.52 17.98L27.52 20.98C27.81 21.27 27.81 21.75 27.52 22.04C27.37 22.19 27.18 22.26 26.99 22.26C26.8 22.26 26.61 22.19 26.46 22.04L24.74 20.32V26.51C24.74 26.92 24.4 27.26 23.99 27.26C23.58 27.26 23.24 26.92 23.24 26.51V20.32L21.52 22.04C21.23 22.33 20.75 22.33 20.46 22.04C20.17 21.75 20.18 21.28 20.47 20.98ZM30.24 29.22C28.23 29.89 26.12 30.23 24 30.23C21.88 30.23 19.77 29.89 17.76 29.22C17.37 29.09 17.16 28.66 17.29 28.27C17.42 27.88 17.85 27.66 18.24 27.8C21.96 29.04 26.05 29.04 29.77 27.8C30.16 27.67 30.59 27.88 30.72 28.27C30.84 28.67 30.63 29.09 30.24 29.22Z" fill="white"/>
</svg>
