<svg width="48" height="48" viewBox="0 0 48 48" fill="none" xmlns="http://www.w3.org/2000/svg">
<circle cx="24" cy="24" r="24" fill="#F85010"/>
<path d="M28.19 14H19.81C16.17 14 14 16.17 14 19.81V28.18C14 31.83 16.17 34 19.81 34H28.18C31.82 34 33.99 31.83 33.99 28.19V19.81C34 16.17 31.83 14 28.19 14ZM20.64 24.81L25.02 20.43H22.59C22.18 20.43 21.84 20.09 21.84 19.68C21.84 19.27 22.18 18.93 22.59 18.93H26.83C26.93 18.93 27.02 18.95 27.12 18.99C27.3 19.07 27.45 19.21 27.53 19.4C27.57 19.49 27.59 19.59 27.59 19.69V23.93C27.59 24.34 27.25 24.68 26.84 24.68C26.43 24.68 26.09 24.34 26.09 23.93V21.5L21.7 25.87C21.55 26.02 21.36 26.09 21.17 26.09C20.98 26.09 20.79 26.02 20.64 25.87C20.35 25.58 20.35 25.1 20.64 24.81ZM30.24 29.22C28.23 29.89 26.12 30.23 24 30.23C21.88 30.23 19.77 29.89 17.76 29.22C17.37 29.09 17.16 28.66 17.29 28.27C17.42 27.88 17.84 27.66 18.24 27.8C21.96 29.04 26.05 29.04 29.77 27.8C30.16 27.67 30.59 27.88 30.72 28.27C30.84 28.67 30.63 29.09 30.24 29.22Z" fill="white"/>
</svg>
