<svg width="24" height="24" viewBox="0 0 24 24" fill="none" xmlns="http://www.w3.org/2000/svg">
<rect width="24" height="24" fill="#E5E5E5"/>
<g clip-path="url(#clip0_2_2)">
<rect width="414" height="896" transform="translate(-32 -807)" fill="white"/>
<path d="M-32 -16H382V89H-32V-16Z" fill="white"/>
<path d="M10.3554 3.54031L10.3562 3.53969C11.2547 2.818 12.7353 2.81826 13.6562 3.55165C13.6564 3.55179 13.6566 3.55194 13.6568 3.55208L20.2012 8.78766C20.496 9.02915 20.7768 9.4314 20.9633 9.91946C21.1495 10.4067 21.2092 10.8947 21.1525 11.2723L19.8947 18.7989C19.8945 18.7999 19.8944 18.8008 19.8942 18.8018C19.6849 19.9976 18.4965 21 17.3 21H6.69996C5.48099 21 4.32502 20.0252 4.1159 18.8129C4.11578 18.8122 4.11567 18.8116 4.11556 18.8109L2.85629 11.2752L2.8559 11.2729C2.79161 10.8936 2.84657 10.4059 3.03183 9.92008C3.21705 9.43436 3.50101 9.03316 3.80364 8.7917L3.80538 8.79031L10.3554 3.54031ZM12 19.75C12.9622 19.75 13.75 18.9623 13.75 18V15C13.75 14.0377 12.9622 13.25 12 13.25C11.0377 13.25 10.25 14.0377 10.25 15V18C10.25 18.9623 11.0377 19.75 12 19.75Z" fill="white" stroke="#322D2D" stroke-width="2"/>
</g>
<defs>
<clipPath id="clip0_2_2">
<rect width="414" height="896" fill="white" transform="translate(-32 -807)"/>
</clipPath>
</defs>
</svg>
